# AST/ASF file generated using VICON BodyLanguage
# -----------------------------------------------
:version 1.10
:name VICON
:units
  mass 1.0
  length 0.45
  angle deg
:documentation
   .ast/.asf automatically generated from VICON data using
   VICON BodyBuilder and BodyLanguage model FoxedUp or BRILLIANT.MOD
:root
   order TX TY TZ RX RY RZ
   axis XYZ
   position 0 0 0  
   orientation 0 0 0 
:bonedata
  begin
     id 1 
     name lhipjoint
     direction 0.693937 -0.600361 0.397515 
     length 2.37164 
     axis 0 0 0  XYZ
  end
  begin
     id 2 
     name lfemur
     direction 0.34202 -0.939693 0  
     length 6.18497  
     axis 0 0 20  XYZ
    dof rx ry rz
    limits (-160.0 20.0)
           (-70.0 70.0)
           (-60.0 70.0)
  end
  begin
     id 3 
     name ltibia
     direction 0.34202 -0.939693 0   
     length 6.91601   
     axis 0 0 20   XYZ
    dof rx
    limits (-10.0 170.0)
  end
  begin
     id 4 
     name lfoot
     direction 0.0978718 -0.2689 0.958182   
     length 1.81453   
     axis -90 7.62852e-016 20   XYZ
    dof rx rz
    limits (-45.0 90.0)
           (-70.0 20.0)
  end
  begin
     id 5 
     name ltoes
     direction 1.53569e-011 -4.21951e-011 1   
     length 0.912052   
     axis -90 7.62852e-016 20   XYZ
    dof rx
    limits (-90.0 20.0)
  end
  begin
     id 6 
     name rhipjoint
     direction -0.643996 -0.637876 0.422354   
     length 2.23216  
     axis 0 0 0  XYZ 
  end
  begin
     id 7 
     name rfemur
     direction -0.34202 -0.939693 0   
     length 6.15404   
     axis 0 0 -20   XYZ
    dof rx ry rz
    limits (-160.0 20.0)
           (-70.0 70.0)
           (-70.0 60.0)
  end
  begin
     id 8 
     name rtibia
     direction -0.34202 -0.939693 0   
     length 6.86744   
     axis 0 0 -20   XYZ
    dof rx
    limits (-10.0 170.0)
 end
 begin
     id 9 
     name rfoot
     direction -0.118701 -0.326127 0.937844   
     length 1.9243  
     axis -90 -7.62852e-016 -20   XYZ
    dof rx rz
    limits (-45.0 90.0)
           (-20.0 70.0)
  end
  begin
     id 10 
     name rtoes
     direction -1.5356e-011 -4.2181e-011 1   
     length 0.958865   
     axis -90 -7.62852e-016 -20   XYZ
    dof rx
    limits (-90.0 20.0)
  end
  begin
     id 11 
     name lowerback
     direction 0.0310826 0.968686 -0.246334   
     length 2.00021   
     axis 0 0 0   XYZ
    dof rx ry rz
    limits (-20.0 45.0)
           (-30.0 30.0)
           (-30.0 30.0)
  end
  begin
     id 12 
     name upperback
     direction -0.0152834 0.999474 -0.0286152   
     length 2.03728   
     axis 0 0 0   XYZ
    dof rx ry rz
    limits (-20.0 45.0)
           (-30.0 30.0)
           (-30.0 30.0)
  end
  begin
     id 13 
     name thorax
     direction -0.0323701 0.996236 0.0804149   
     length 2.16   
     axis 0 0 0   XYZ
    dof rx ry rz
    limits (-20.0 45.0)
           (-30.0 30.0)
           (-30.0 30.0)
  end
  begin
     id 14 
     name lowerneck
     direction 0.0307935 0.982251 0.185027   
     length 1.43558   
     axis 0 0 0   XYZ
    dof rx ry rz
    limits (-20.0 45.0)
           (-30.0 30.0)
           (-30.0 30.0)
  end
  begin
     id 15 
     name upperneck
     direction -0.0927153 0.994775 0.0427454   
     length 1.44603   
     axis 0 0 0   XYZ
    dof rx ry rz
    limits (-20.0 45.0)
           (-30.0 30.0)
           (-30.0 30.0)
  end
  begin
     id 16
     name head
     direction -0.0341265 0.999406 -0.00472033  
     length 1.45931  
     axis 0 0 0   XYZ
    dof rx ry rz
    limits (-20.0 45.0)
           (-30.0 30.0)
           (-30.0 30.0)
  end
  begin
     id 17 
     name lclavicle
     direction 0.820755 0.555306 -0.134151  
     length 2.66075  
     axis 0 0 0   XYZ
    dof ry rz
    limits (-20.0 10.0)
           (0.0 20.0)
  end
  begin
     id 18 
     name lhumerus
     direction 1 -4.48971e-011 5.24853e-027   
     length 5.0546   
     axis -180 -30 -90   XYZ
    dof rx ry rz
    limits (-60.0 90.0)
           (-90.0 90.0)
           (-90.0 90.0)
  end
  begin
     id 19
     name lradius
     direction 1 -4.48971e-011 2.76575e-028   
     length 3.39013   
     axis -180 -30 -90   XYZ
    dof rx
    limits (-10.0 170.0)
  end
  begin
     id 20
     name lwrist
     direction 1 -4.48939e-011 -2.27826e-027   
     length 1.69507   
     axis 2.17013e-015 90 90   XYZ
    dof ry
    limits (-180.0 0.0)
 end
  begin
     id 21 
     name lhand
     direction 1 -4.49009e-011 -4.55652e-027   
     length 0.572425   
     axis 2.90745e-015 90 90   XYZ
    dof rx rz
    limits (-90.0 90.0)
           (-45.0 45.0)
  end
  begin
     id 22 
     name lfingers
     direction 1 -4.48955e-011 -9.11303e-027   
     length 0.461504   
     axis 5.81489e-015 90 90   XYZ
    dof rx
    limits (0.0 90.0)
  end
  begin
     id 23
     name lthumb
     direction 0.707107 -6.34929e-011 0.707107   
     length 0.66263   
     axis -90 45 2.85299e-015   XYZ
    dof rx rz
    limits (-45.0 45.0)
           (-45.0 45.0)
  end
  begin
     id 24 
     name rclavicle
     direction -0.754477 0.632921 -0.173712   
     length 2.73081  
     axis 0 0 0   XYZ 
    dof ry rz
    limits (-10.0 20.0)
           (-20.0 0.0)
  end
  begin
     id 25 
     name rhumerus
     direction -1 -4.48969e-011 5.1496e-027  
     length 5.0701   
     axis -180 30 90   XYZ
    dof rx ry rz
    limits (-90.0 60.0)
           (-90.0 90.0)
           (-90.0 90.0)
  end
  begin
     id 26 
     name rradius
     direction -1 -4.48967e-011 -7.15624e-028   
     length 3.14957   
     axis -180 30 90   XYZ
    dof rx
    limits (-10.0 170.0)
  end
  begin
     id 27 
     name rwrist
     direction -1 -4.48938e-011 -2.27826e-027   
     length 1.57479   
     axis 2.17013e-015 -90 -90   XYZ
    dof ry
    limits (-180.0 0.0)
  end
  begin
     id 28
     name rhand
     direction -1 -4.49008e-011 -4.55652e-027   
     length 0.718191   
     axis 2.90745e-015 -90 -90   XYZ
    dof rx rz
    limits (-90.0 90.0)
           (-45.0 45.0)
  end
  begin
     id 29
     name rfingers
     direction -1 -4.48953e-011 -9.11303e-027   
     length 0.579024   
     axis 5.81489e-015 -90 -90   XYZ
    dof rx
    limits (0.0 90.0)
  end
  begin
     id 30
     name rthumb
     direction -0.707107 -6.34937e-011 0.707107   
     length 0.831366   
     axis -90 -45 -2.85299e-015   XYZ
    dof rx rz
    limits (-45.0 45.0)
           (-45.0 45.0)
  end
:hierarchy
  begin
    root lhipjoint rhipjoint lowerback
    lhipjoint lfemur
    lfemur ltibia
    ltibia lfoot
    lfoot ltoes
    rhipjoint rfemur
    rfemur rtibia
    rtibia rfoot
    rfoot rtoes
    lowerback upperback
    upperback thorax
    thorax lowerneck lclavicle rclavicle
    lowerneck upperneck
    upperneck head
    lclavicle lhumerus
    lhumerus lradius
    lradius lwrist
    lwrist lhand lthumb
    lhand lfingers
    rclavicle rhumerus
    rhumerus rradius
    rradius rwrist
    rwrist rhand rthumb
    rhand rfingers
  end

#!OML:ASF H:\Male1\Project 1\Capture day 1\Session 1\Male1.ASF
:FULLY-SPECIFIED
:DEGREES
81
root 5.88156 15.4214 3.21545 178.428 6.63057 178.484
lowerback 8.36373 2.09867 -2.53413
upperback 0.0382082 2.5586 -2.76973
thorax -4.6338 1.35048 -1.77393
lowerneck -6.44562 9.19715 13.4044
upperneck 1.82644 11.8495 -12.382
head 3.14114 5.74029 -5.23025
rclavicle 5.61567e-015 2.3059e-014
rhumerus -55.922 17.2908 -75.4599
rradius 125.999
rwrist -8.8203
rhand -18.9222 24.8802
rfingers 7.12502
rthumb 7.38029 -4.97106
lclavicle 5.61567e-015 2.3059e-014
lhumerus -63.0337 -9.41497 61.2521
lradius 128.735
lwrist -11.5696
lhand -37.6302 -19.5942
lfingers 7.12502
lthumb -10.6825 10.1143
rfemur -5.85454 15.344 19.8923
rtibia 26.2117
rfoot -24.7723 -25.3557
rtoes -26.739
lfemur -1.35133 -16.1154 -21.9611
ltibia 21.1486
lfoot -25.6442 30.3302
ltoes 2.45374
82
root 5.88457 15.4198 3.19129 178.473 6.50259 178.375
lowerback 8.18777 2.12302 -2.77391
upperback -0.101709 2.57101 -2.90665
thorax -4.68529 1.36373 -1.78089
lowerneck -6.44173 9.02927 13.4664
upperneck 1.77059 11.6103 -12.3523
head 3.09493 5.62295 -5.25409
rclavicle -2.52457e-014 -2.22639e-014
rhumerus -55.8901 16.6046 -73.1441
rradius 127.609
rwrist -8.56261
rhand -19.2412 25.4068
rfingers 7.12502
rthumb 7.07237 -4.455
lclavicle -2.52457e-014 -2.22639e-014
lhumerus -62.9743 -9.2524 59.0152
lradius 130.546
lwrist -11.3466
lhand -38.2296 -20.5242
lfingers 7.12502
lthumb -11.2607 9.15351
rfemur -5.76741 15.3913 19.8182
rtibia 26.1992
rfoot -24.8664 -25.561
rtoes -26.1947
lfemur -1.26132 -16.4892 -22.1488
ltibia 21.1051
lfoot -25.9081 30.4683
ltoes 2.81092
83
root 5.88639 15.4217 3.16367 178.618 6.37384 178.473
lowerback 7.94405 2.12842 -2.77814
upperback -0.309013 2.57612 -2.99595
thorax -4.76095 1.36555 -1.86793
lowerneck -6.3446 8.96151 13.6016
upperneck 1.84681 11.3991 -12.1783
head 3.07339 5.44634 -5.24646
rclavicle 2.6339e-014 -1.51076e-014
rhumerus -55.9917 15.9224 -70.9491
rradius 129.188
rwrist -8.53154
rhand -19.7592 25.7166
rfingers 7.12502
rthumb 6.57226 -4.16141
lclavicle 2.6339e-014 -1.51076e-014
lhumerus -62.7695 -9.11531 56.7961
lradius 132.257
lwrist -11.1446
lhand -39.0292 -21.4829
lfingers 7.12502
lthumb -12.0318 8.15123
rfemur -5.74619 15.3994 19.9228
rtibia 26.1592
rfoot -24.9752 -25.6867
rtoes -25.938
lfemur -1.28114 -16.8438 -22.1027
ltibia 21.1188
lfoot -26.1895 30.5714
ltoes 3.14596
84
root 5.88585 15.4228 3.1361 178.747 6.22406 178.748
lowerback 7.70979 2.05528 -2.76059
upperback -0.494762 2.47614 -2.90789
thorax -4.82727 1.31236 -1.76928
lowerneck -6.22976 8.93021 13.68
upperneck 1.90688 11.3605 -11.941
head 3.05602 5.44178 -5.19259
rclavicle 5.96354e-015 3.02153e-014
rhumerus -55.8989 15.4161 -68.5845
rradius 130.672
rwrist -8.49335
rhand -20.1531 25.8321
rfingers 7.12502
rthumb 6.19197 -4.05743
lclavicle 5.96354e-015 3.02153e-014
lhumerus -62.6621 -8.49565 54.4832
lradius 133.932
lwrist -11.5825
lhand -39.5515 -22.0719
lfingers 7.12502
lthumb -12.5354 7.53206
rfemur -5.67926 15.3269 20.2262
rtibia 26.1014
rfoot -24.808 -25.9806
rtoes -26.8087
lfemur -1.28438 -17.225 -21.8763
ltibia 21.1689
lfoot -26.529 30.627
ltoes 3.57461
85
root 5.88615 15.417 3.10969 178.757 6.04953 178.763
lowerback 7.58668 1.99957 -3.00939
upperback -0.649286 2.37831 -2.90629
thorax -4.9306 1.27098 -1.61687
lowerneck -6.25732 8.88533 13.926
upperneck 2.06801 11.3565 -11.7776
head 3.10886 5.5083 -5.17399
rclavicle -1.48095e-014 4.29375e-014
rhumerus -55.706 14.7868 -65.9804
rradius 132.122
rwrist -8.33938
rhand -20.1133 25.8409
rfingers 7.12502
rthumb 6.23047 -4.04748
lclavicle -1.48095e-014 4.29375e-014
lhumerus -62.7257 -8.16049 52.7588
lradius 135.672
lwrist -10.8318
lhand -41.225 -21.8087
lfingers 7.12502
lthumb -14.1484 7.68956
rfemur -5.47868 15.2995 20.2826
rtibia 26.0237
rfoot -24.9288 -26.0719
rtoes -26.721
lfemur -1.20459 -17.6998 -21.9655
ltibia 21.2569
lfoot -26.8598 30.822
ltoes 3.74446
86
root 5.88961 15.4111 3.08276 178.777 5.87434 178.706
lowerback 7.42486 2.01247 -3.29565
upperback -0.822572 2.37231 -2.95582
thorax -5.03044 1.27784 -1.50695
lowerneck -6.2995 8.90236 14.1595
upperneck 2.40022 11.2979 -11.569
head 3.20814 5.43236 -5.14545
rclavicle -3.15446e-014 -2.8625e-014
rhumerus -55.689 13.9533 -63.5072
rradius 133.63
rwrist -8.46944
rhand -20.355 25.8671
rfingers 7.12502
rthumb 5.9971 -4.02802
lclavicle -3.15446e-014 -2.8625e-014
lhumerus -62.6526 -7.98298 51.0823
lradius 137.351
lwrist -9.80397
lhand -42.8619 -22.2558
lfingers 7.12502
lthumb -15.7254 7.1253
rfemur -5.27087 15.4228 20.2667
rtibia 25.9353
rfoot -25.5263 -25.9342
rtoes -25.6758
lfemur -1.15464 -18.1291 -22.1168
ltibia 21.3697
lfoot -27.1629 31.0272
ltoes 3.73452
